<svg xmlns="http://www.w3.org/2000/svg" viewBox="0 0 87.12 97.53"><defs><style>.cls-1{fill:#fff;}.cls-2{fill:none;stroke:#fff;stroke-miterlimit:10;}</style></defs><title>Asset 2login</title><g id="Layer_2" data-name="Layer 2"><g id="Layer_1-2" data-name="Layer 1"><path class="cls-1" d="M82.12,92.34c.71-8.12.77-15.79-3.91-22.73-3.14-4.65-7.14-7.9-12.83-9C63.19,60.14,61,57.2,64.3,56.5A12.9,12.9,0,0,1,74.46,59a31.47,31.47,0,0,1,9.35,11.25c2.42,4.68,3.16,10,3.29,15.16.06,2.55,0,5.11-.1,7.67-.09,2.87.14,4.36-3.32,4.36-26.37,0-52.74,0-79.1.1-3.29,0-4.62-1-4.58-4.48.11-9.65-.64-19.4,6.05-27.63,4-4.93,8.69-8.68,15.21-9.29,2.22-.21,4.4,2.39,1.88,3.85a3.72,3.72,0,0,1-1,.36c-3.22.86-6.24,1.81-8.93,3.88-7.81,6-9,19.07-8.2,28.12Z"/><path class="cls-1" d="M64.07,26.54A37.09,37.09,0,0,1,60.64,40c-7,15-28.15,14-34.79-.63C19.65,25.7,23.85-.95,43.32,0A21.54,21.54,0,0,1,59.66,9.37,27.51,27.51,0,0,1,64.07,26.54Zm-4.51-.84a81.42,81.42,0,0,0-1.35-8.42C56.39,10.21,50.57,5.29,44.1,5A14.3,14.3,0,0,0,29.3,16.13a45.37,45.37,0,0,0-.57,17.49A15.09,15.09,0,0,0,44,46.51c7-.29,12.85-5.72,14.59-13.82C59,30.52,59.2,28.3,59.56,25.7Z"/><path class="cls-2" d="M59.56,25.7c-.36,2.6-.55,4.82-1,7C56.81,40.79,51,46.22,44,46.51A15.09,15.09,0,0,1,28.73,33.62a45.37,45.37,0,0,1,.57-17.49A14.3,14.3,0,0,1,44.1,5c6.47.28,12.29,5.2,14.11,12.27A81.42,81.42,0,0,1,59.56,25.7Z"/></g></g></svg>